<svg xmlns="http://www.w3.org/2000/svg" width="920" height="360" viewBox="0 0 920 360" role="img">
<rect width="920" height="360" fill="#f8fafc"/>
<text x="32" y="42" font-size="23" font-weight="700" fill="#111827">Industrial Maintainability Index trend</text>
<text x="32" y="64" font-size="13" fill="#475569">0-100 score from static maintainability, test-footprint, and freshness evidence.</text>
<line x1="72" y1="292" x2="848" y2="292" stroke="#94a3b8"/>
<line x1="72" y1="76" x2="72" y2="292" stroke="#94a3b8"/>
<text x="32" y="80" font-size="11" fill="#64748b">100</text>
<text x="40" y="296" font-size="11" fill="#64748b">0</text>
<polyline points="72.0,134.3 182.9,134.3 293.7,134.3 404.6,134.3 515.4,134.3 626.3,134.3 737.1,134.3 848.0,134.3" fill="none" stroke="#0f766e" stroke-width="3"/>
<circle cx="72.0" cy="134.3" r="4" fill="#0f766e"/>
<circle cx="182.9" cy="134.3" r="4" fill="#0f766e"/>
<circle cx="293.7" cy="134.3" r="4" fill="#0f766e"/>
<circle cx="404.6" cy="134.3" r="4" fill="#0f766e"/>
<circle cx="515.4" cy="134.3" r="4" fill="#0f766e"/>
<circle cx="626.3" cy="134.3" r="4" fill="#0f766e"/>
<circle cx="737.1" cy="134.3" r="4" fill="#0f766e"/>
<circle cx="848.0" cy="134.3" r="4" fill="#0f766e"/>
<text x="856.0" y="138.3" font-size="12" fill="#111827">Airbyte</text>
<polyline points="72.0,201.3 182.9,201.3 293.7,201.3 404.6,201.3 515.4,201.3 626.3,201.3 737.1,201.3 848.0,201.3" fill="none" stroke="#2563eb" stroke-width="3"/>
<circle cx="72.0" cy="201.3" r="4" fill="#2563eb"/>
<circle cx="182.9" cy="201.3" r="4" fill="#2563eb"/>
<circle cx="293.7" cy="201.3" r="4" fill="#2563eb"/>
<circle cx="404.6" cy="201.3" r="4" fill="#2563eb"/>
<circle cx="515.4" cy="201.3" r="4" fill="#2563eb"/>
<circle cx="626.3" cy="201.3" r="4" fill="#2563eb"/>
<circle cx="737.1" cy="201.3" r="4" fill="#2563eb"/>
<circle cx="848.0" cy="201.3" r="4" fill="#2563eb"/>
<text x="856.0" y="205.3" font-size="12" fill="#111827">Apache Hop</text>
<polyline points="72.0,149.4 182.9,149.4 293.7,149.4 404.6,149.4 515.4,149.4 626.3,149.4 737.1,149.4 848.0,149.4" fill="none" stroke="#f59e0b" stroke-width="3"/>
<circle cx="72.0" cy="149.4" r="4" fill="#f59e0b"/>
<circle cx="182.9" cy="149.4" r="4" fill="#f59e0b"/>
<circle cx="293.7" cy="149.4" r="4" fill="#f59e0b"/>
<circle cx="404.6" cy="149.4" r="4" fill="#f59e0b"/>
<circle cx="515.4" cy="149.4" r="4" fill="#f59e0b"/>
<circle cx="626.3" cy="149.4" r="4" fill="#f59e0b"/>
<circle cx="737.1" cy="149.4" r="4" fill="#f59e0b"/>
<circle cx="848.0" cy="149.4" r="4" fill="#f59e0b"/>
<text x="856.0" y="153.4" font-size="12" fill="#111827">dlt</text>
<polyline points="72.0,76.0 182.9,76.0 293.7,76.0 404.6,76.0 515.4,76.0 626.3,76.0 737.1,76.0 848.0,76.0" fill="none" stroke="#dc2626" stroke-width="3"/>
<circle cx="72.0" cy="76.0" r="4" fill="#dc2626"/>
<circle cx="182.9" cy="76.0" r="4" fill="#dc2626"/>
<circle cx="293.7" cy="76.0" r="4" fill="#dc2626"/>
<circle cx="404.6" cy="76.0" r="4" fill="#dc2626"/>
<circle cx="515.4" cy="76.0" r="4" fill="#dc2626"/>
<circle cx="626.3" cy="76.0" r="4" fill="#dc2626"/>
<circle cx="737.1" cy="76.0" r="4" fill="#dc2626"/>
<circle cx="848.0" cy="76.0" r="4" fill="#dc2626"/>
<text x="856.0" y="80.0" font-size="12" fill="#111827">dpone</text>
<polyline points="72.0,214.2 182.9,214.2 293.7,214.2 404.6,214.2 515.4,214.2 626.3,214.2 737.1,214.2 848.0,214.2" fill="none" stroke="#7c3aed" stroke-width="3"/>
<circle cx="72.0" cy="214.2" r="4" fill="#7c3aed"/>
<circle cx="182.9" cy="214.2" r="4" fill="#7c3aed"/>
<circle cx="293.7" cy="214.2" r="4" fill="#7c3aed"/>
<circle cx="404.6" cy="214.2" r="4" fill="#7c3aed"/>
<circle cx="515.4" cy="214.2" r="4" fill="#7c3aed"/>
<circle cx="626.3" cy="214.2" r="4" fill="#7c3aed"/>
<circle cx="737.1" cy="214.2" r="4" fill="#7c3aed"/>
<circle cx="848.0" cy="214.2" r="4" fill="#7c3aed"/>
<text x="856.0" y="218.2" font-size="12" fill="#111827">Pentaho Kettle</text>
<polyline points="72.0,192.6 182.9,192.6 293.7,192.6 404.6,192.6 515.4,192.6 626.3,192.6 737.1,192.6 848.0,192.6" fill="none" stroke="#0f766e" stroke-width="3"/>
<circle cx="72.0" cy="192.6" r="4" fill="#0f766e"/>
<circle cx="182.9" cy="192.6" r="4" fill="#0f766e"/>
<circle cx="293.7" cy="192.6" r="4" fill="#0f766e"/>
<circle cx="404.6" cy="192.6" r="4" fill="#0f766e"/>
<circle cx="515.4" cy="192.6" r="4" fill="#0f766e"/>
<circle cx="626.3" cy="192.6" r="4" fill="#0f766e"/>
<circle cx="737.1" cy="192.6" r="4" fill="#0f766e"/>
<circle cx="848.0" cy="192.6" r="4" fill="#0f766e"/>
<text x="856.0" y="196.6" font-size="12" fill="#111827">Sling</text>
</svg>
